<svg viewBox="0 0 40 40" aria-hidden="true" width="40" height="40" class="fill-logoBlend"><path fill-rule="evenodd" clip-rule="evenodd" d="M20 40C31.0457 40 40 31.0449 40 20C40 8.95508 31.0457 0 20 0C8.95435 0 0 8.95508 0 20C0 31.0449 8.95435 40 20 40ZM19.2587 24.8496C23.8959 25.4316 28.1278 22.1465 28.7111 17.5078C29.2944 12.8711 26.0082 8.63867 21.371 8.05664C16.7339 7.47266 12.5018 10.7598 11.9186 15.3965C11.8684 15.7949 11.8468 16.1914 11.8525 16.5898L11.7244 30.2676C11.7222 30.5996 12.0128 30.9023 12.3424 30.9434H17.25C17.6517 30.9941 18.0029 30.6719 17.9873 30.2676L17.7908 25.0898C17.7803 24.8145 18.0465 24.6113 18.3148 24.6758C18.5322 24.7285 18.7532 24.7734 18.9775 24.8086L19.2587 24.8496ZM17.9625 15.2988L22.3359 13.1816C22.7366 12.9883 23.0323 13.4258 22.7621 13.8125L21.6823 15.3613C21.3961 15.7715 21.4967 16.3359 21.9071 16.623L22.7935 17.2402C23.0515 17.4199 22.954 17.8848 22.6239 18.0449L18.2504 20.1621C18.0419 20.2637 17.8617 20.1934 17.775 20.0488C17.6952 19.9141 17.6947 19.7168 17.8243 19.5312L18.9042 17.9824C19.1903 17.5723 19.0896 17.0078 18.6793 16.7207L17.793 16.1035C17.5352 15.9238 17.6327 15.459 17.9625 15.2988Z"></path></svg>