<svg width="576" height="577" viewBox="0 0 576 577" fill="none" xmlns="http://www.w3.org/2000/svg">
<path d="M191.999 384H0V575.999H191.999V384Z" fill="#181B28"/>
<path d="M135.767 519.766C153.646 501.981 167.821 480.828 177.474 457.529C187.126 434.23 192.063 409.248 191.999 384.028H132.038C132.038 456.795 72.8052 516.051 0 516.051V576.027C25.2257 576.094 50.214 571.156 73.5185 561.498C96.8231 551.841 117.981 537.657 135.767 519.766Z" fill="#375BD2"/>
<path d="M384 384H191.999V575.999L384 576V384Z" fill="#F7CB16"/>
<path d="M287.997 575.832C340.925 575.832 383.832 532.925 383.832 479.996C383.832 427.068 340.925 384.161 287.997 384.161C235.068 384.161 192.161 427.068 192.161 479.996C192.161 532.925 235.068 575.832 287.997 575.832Z" fill="#375BD2"/>
<path d="M323.423 500.452V459.548L287.997 439.092L252.57 459.548V500.452L287.997 520.901L323.423 500.452Z" fill="#FD5060"/>
<path d="M303.695 489.063V470.93L287.997 461.863L272.291 470.93V489.063L287.997 498.13L303.695 489.063Z" fill="white"/>
<path d="M576 384H384V576H576V384Z" fill="#FD5060"/>
<path d="M423.7 384.007H471.27C471.27 441.757 518.252 488.734 576 488.734V536.306C535.611 536.304 496.877 520.259 468.317 491.699C439.757 463.139 423.711 424.404 423.707 384.014L423.7 384.007Z" fill="white"/>
<path d="M443.896 556.293H403.511V515.899" fill="#181B28"/>
<path d="M464.092 536.096H423.707V495.702" fill="#181B28"/>
<path d="M192 0H0V192H192V0Z" fill="#F7CB16"/>
<path d="M77 192H112.917C112.949 171.581 121.291 152.008 136.115 137.57C150.939 123.131 171.036 115.006 192 114.975V80C161.501 80 132.252 91.7997 110.685 112.804C89.1187 133.807 77.0019 162.295 77 192Z" fill="#FD5060"/>
<path d="M97.0833 48.0842L49 0.000976562L0.91674 48.0842L49 96.1675L97.0833 48.0842Z" fill="#375BD2"/>
<path d="M75.9086 99.3626C89.7157 99.3626 100.909 88.1697 100.909 74.3626C100.909 60.5555 89.7157 49.3626 75.9086 49.3626C62.1015 49.3626 50.9086 60.5555 50.9086 74.3626C50.9086 88.1697 62.1015 99.3626 75.9086 99.3626Z" fill="white"/>
<path d="M384 0H192V192L384 192V0Z" fill="#181B28"/>
<path d="M341.501 126.89V65.1098L287.997 34.2163L234.493 65.1098V126.89L287.997 157.783L341.501 126.89Z" fill="#375BD2"/>
<path d="M249.799 173.769H209.063V133.032" fill="#FD5060"/>
<path d="M326.263 19.3364H367V60.066" fill="#F7CB16"/>
<path d="M287.996 117.726C282.972 117.718 278.106 115.968 274.227 112.776C270.347 109.583 267.695 105.144 266.721 100.215C265.746 95.2863 266.511 90.1722 268.884 85.7437C271.257 81.3152 275.092 77.8463 279.735 75.9277C284.379 74.0091 289.544 73.7595 294.351 75.2214C299.158 76.6832 303.309 79.7662 306.098 83.9452C308.887 88.1242 310.141 93.1408 309.647 98.1406C309.153 103.14 306.941 107.814 303.387 111.366C301.371 113.393 298.972 114.998 296.33 116.09C293.688 117.182 290.855 117.738 287.996 117.726ZM287.996 81.0535C285.041 81.0535 282.152 81.9299 279.694 83.5718C277.237 85.2138 275.322 87.5476 274.191 90.2781C273.06 93.0086 272.764 96.0131 273.34 98.9118C273.917 101.81 275.34 104.473 277.43 106.563C279.52 108.653 282.182 110.076 285.081 110.652C287.98 111.229 290.984 110.933 293.715 109.802C296.445 108.671 298.779 106.756 300.421 104.298C302.063 101.841 302.939 98.952 302.939 95.9965C302.934 92.0351 301.358 88.2375 298.557 85.4363C295.755 82.6352 291.958 81.059 287.996 81.0535Z" fill="#181B28"/>
<path d="M384 192H576V0H384V192Z" fill="#375BD2"/>
<path d="M536 192H488.524C488.524 135.886 441.634 90.2288 384 90.2288V44C424.309 44.0018 462.967 59.5943 491.471 87.3478C519.974 115.101 535.989 152.743 535.993 191.993L536 192Z" fill="white"/>
<path d="M192 192H0V384H191.999L192 192Z" fill="#FD5060"/>
<path d="M135.767 248.24C117.98 230.354 96.8214 216.174 73.5169 206.521C50.2124 196.867 25.2247 191.931 0 192V251.969C72.8051 251.969 132.038 311.195 132.038 384H191.999C192.068 358.777 187.134 333.791 177.482 310.487C167.829 287.184 153.651 266.027 135.767 248.24Z" fill="white"/>
<path d="M112 192H77.0195C76.9885 212.964 68.8641 233.061 54.4268 247.885C39.9896 262.709 20.4173 271.051 0 271.083V307C14.715 307.041 29.2918 304.085 42.8869 298.304C56.482 292.522 68.8254 284.029 79.2028 273.317C89.6335 262.662 97.9028 249.989 103.532 236.031C109.162 222.073 112.04 207.107 112 192Z" fill="#375BD2"/>
<path d="M384 192L192 192L191.999 384H384V192Z" fill="#375BD2"/>
<path d="M211.833 211.938H364.16V364.265" fill="#F7CB16"/>
<path d="M287.996 339.185C276.182 339.184 264.733 335.088 255.6 327.592C246.467 320.097 240.215 309.667 237.91 298.079C235.605 286.492 237.389 274.463 242.958 264.043C248.527 253.623 257.536 245.457 268.451 240.935C279.367 236.413 291.512 235.815 302.818 239.244C314.124 242.672 323.892 249.915 330.457 259.738C337.022 269.56 339.979 281.356 338.822 293.114C337.666 304.872 332.469 315.865 324.116 324.221C319.384 328.979 313.755 332.752 307.555 335.32C301.355 337.889 294.707 339.202 287.996 339.185ZM287.996 252.968C281.046 252.967 274.252 255.027 268.473 258.888C262.694 262.749 258.19 268.237 255.53 274.658C252.871 281.079 252.176 288.145 253.533 294.962C254.89 301.778 258.238 308.039 263.154 312.952C268.07 317.865 274.333 321.209 281.15 322.562C287.967 323.915 295.032 323.216 301.452 320.553C307.872 317.889 313.357 313.382 317.215 307.601C321.072 301.819 323.128 295.024 323.122 288.073C323.104 278.765 319.397 269.844 312.813 263.263C306.229 256.683 297.305 252.981 287.996 252.968Z" fill="#FD5060"/>
<path d="M576 192H384V384H576V192Z" fill="#181B28"/>
<path d="M384.224 383.776V192.217H575.776" fill="#FD5060"/>
<path d="M520.145 366.826C511.047 366.82 502.232 363.661 495.201 357.885C488.171 352.109 483.361 344.074 481.59 335.15C479.819 326.225 481.198 316.962 485.49 308.94C489.783 300.918 496.724 294.632 505.131 291.153C513.538 287.674 522.892 287.218 531.598 289.862C540.303 292.506 547.823 298.086 552.876 305.653C557.929 313.22 560.202 322.304 559.309 331.359C558.415 340.413 554.41 348.878 547.975 355.31C544.329 358.976 539.991 361.881 535.214 363.857C530.437 365.834 525.315 366.843 520.145 366.826ZM520.145 300.449C514.796 300.449 509.567 302.035 505.12 305.007C500.672 307.979 497.205 312.203 495.158 317.145C493.111 322.087 492.576 327.525 493.619 332.771C494.663 338.018 497.239 342.837 501.021 346.619C504.804 350.402 509.623 352.978 514.869 354.021C520.115 355.065 525.553 354.529 530.495 352.482C535.437 350.435 539.661 346.969 542.633 342.521C545.605 338.073 547.191 332.844 547.191 327.495C547.182 320.325 544.33 313.451 539.259 308.381C534.189 303.311 527.316 300.459 520.145 300.449Z" fill="white"/>
<path d="M400.44 274.648H464.305V210.784H400.44V274.648Z" fill="white"/>
</svg>
